<svg width="142" height="51" viewBox="0 0 142 51" fill="none" xmlns="http://www.w3.org/2000/svg">
<g filter="url(#filter0_d_889_1253)">
<g clip-path="url(#clip0_889_1253)">
<path d="M124.485 3.00004H13.5147C13.1102 3.00004 12.7106 3.00004 12.3071 3.00209C11.9694 3.00414 11.6344 3.01009 11.2934 3.0151C10.5527 3.0232 9.81374 3.08375 9.08298 3.19623C8.35321 3.31115 7.6463 3.52782 6.98615 3.83891C6.32681 4.15262 5.72438 4.56026 5.2006 5.04704C4.67413 5.53244 4.23526 6.09353 3.90089 6.70868C3.56561 7.3226 3.33312 7.98044 3.21146 8.6596C3.08864 9.33784 3.02255 10.0239 3.01378 10.7116C3.00355 11.0259 3.00246 11.3412 2.99707 11.6556V35.3475C3.00246 35.6658 3.00355 35.9741 3.01378 36.2925C3.02255 36.9801 3.08864 37.6662 3.21146 38.3444C3.33278 39.0239 3.56528 39.6822 3.90089 40.2963C4.2351 40.9094 4.67403 41.4683 5.2006 41.951C5.72233 42.4399 6.32516 42.8478 6.98615 43.1591C7.64629 43.471 8.35314 43.689 9.08298 43.8057C9.81391 43.9172 10.5528 43.9778 11.2934 43.9869C11.6344 43.9939 11.9694 43.9979 12.3071 43.9979C12.7106 43.9999 13.1102 43.9999 13.5147 43.9999H124.485C124.882 43.9999 125.285 43.9999 125.681 43.9979C126.017 43.9979 126.362 43.9939 126.698 43.9869C127.438 43.9783 128.174 43.9178 128.904 43.8057C129.636 43.6882 130.346 43.4703 131.009 43.1591C131.669 42.8476 132.272 42.4397 132.793 41.951C133.318 41.4664 133.758 40.908 134.096 40.2963C134.43 39.6817 134.66 39.0235 134.779 38.3444C134.903 37.6661 134.971 36.9802 134.984 36.2925C134.989 35.9741 134.989 35.6658 134.989 35.3475C134.997 34.9751 134.997 34.6048 134.997 34.2264V12.7743C134.997 12.3989 134.997 12.0265 134.989 11.6552C134.989 11.3408 134.989 11.0255 134.984 10.7112C134.971 10.0234 134.903 9.33754 134.779 8.65922C134.66 7.9805 134.429 7.32269 134.096 6.7083C133.415 5.47534 132.336 4.47167 131.009 3.83853C130.346 3.52821 129.636 3.3116 128.904 3.19585C128.175 3.08288 127.438 3.02231 126.698 3.01467C126.362 3.00967 126.017 3.00366 125.681 3.00166C125.285 2.99961 124.882 3.00004 124.485 3.00004Z" fill="#D10C0C"/>
<path d="M31.1589 22.8136C31.1694 21.9988 31.3862 21.1999 31.789 20.4912C32.1919 19.7826 32.7678 19.1871 33.4631 18.7604C33.0214 18.1306 32.4387 17.6123 31.7613 17.2467C31.0839 16.881 30.3303 16.6782 29.5606 16.6541C27.9187 16.4821 26.327 17.635 25.4902 17.635C24.6374 17.635 23.3491 16.6712 21.9619 16.6997C21.0647 16.7286 20.1902 16.9891 19.4237 17.4558C18.6572 17.9224 18.025 18.5794 17.5884 19.3626C15.6974 22.6313 17.1079 27.4351 18.9193 30.0773C19.8257 31.3711 20.8849 32.8162 22.2708 32.765C23.6271 32.7089 24.1336 31.9016 25.7707 31.9016C27.3925 31.9016 27.8678 32.765 29.2819 32.7324C30.7372 32.7089 31.6541 31.4329 32.5286 30.1269C33.1798 29.205 33.6809 28.1861 34.0133 27.108C33.1678 26.751 32.4462 26.1533 31.9387 25.3897C31.4311 24.626 31.1599 23.7301 31.1589 22.8136Z" fill="#F0EEEE"/>
<path d="M28.4869 14.9166C29.2804 13.9655 29.6714 12.7432 29.5767 11.509C28.3644 11.6362 27.2446 12.2146 26.4404 13.1291C26.0472 13.5759 25.7461 14.0957 25.5542 14.6587C25.3623 15.2217 25.2834 15.817 25.3221 16.4105C25.9284 16.4167 26.5283 16.2855 27.0765 16.0268C27.6248 15.7679 28.107 15.3884 28.4869 14.9166Z" fill="#F0EEEE"/>
<path d="M50.7918 29.4883H46.1636L45.0522 32.7648H43.0918L47.4756 20.6425H49.5123L53.8961 32.7648H51.9023L50.7918 29.4883ZM46.643 27.9763H50.3116L48.503 22.6587H48.4524L46.643 27.9763Z" fill="#F0EEEE"/>
<path d="M63.3642 28.3456C63.3642 31.0922 61.8919 32.8567 59.6699 32.8567C59.1071 32.8861 58.5472 32.7566 58.0547 32.4832C57.5621 32.2097 57.1565 31.8033 56.8846 31.3105H56.8425V35.6881H55.0254V23.9264H56.7843V25.3964H56.8177C57.1022 24.9059 57.5145 24.5016 58.0109 24.2264C58.5072 23.9513 59.069 23.8157 59.6365 23.8339C61.8832 23.834 63.3642 25.6068 63.3642 28.3456ZM61.4966 28.3456C61.4966 26.5563 60.5703 25.3799 59.1571 25.3799C57.7687 25.3799 56.8349 26.581 56.8349 28.3456C56.8349 30.1264 57.7687 31.3191 59.1571 31.3191C60.5703 31.3191 61.4966 30.1512 61.4966 28.3456Z" fill="#F0EEEE"/>
<path d="M73.1074 28.3456C73.1074 31.0921 71.635 32.8567 69.4131 32.8567C68.8502 32.8861 68.2904 32.7566 67.7978 32.4832C67.3052 32.2097 66.8997 31.8033 66.6277 31.3104H66.5857V35.6881H64.7686V23.9264H66.5274V25.3964H66.5608C66.8453 24.9059 67.2577 24.5016 67.754 24.2264C68.2504 23.9513 68.8122 23.8157 69.3796 23.8339C71.6264 23.8339 73.1074 25.6068 73.1074 28.3456ZM71.2397 28.3456C71.2397 26.5563 70.3135 25.3799 68.9003 25.3799C67.5119 25.3799 66.5781 26.581 66.5781 28.3456C66.5781 30.1264 67.5119 31.3191 68.9003 31.3191C70.3135 31.3191 71.2397 30.1512 71.2397 28.3456Z" fill="#F0EEEE"/>
<path d="M79.5449 29.3873C79.6792 30.5894 80.8491 31.3787 82.4474 31.3787C83.9794 31.3787 85.0806 30.5894 85.0806 29.5055C85.0806 28.5646 84.4161 28.0011 82.8427 27.615L81.2692 27.2366C79.0396 26.6989 78.0045 25.6579 78.0045 23.9686C78.0045 21.8771 79.8301 20.4404 82.4225 20.4404C84.9886 20.4404 86.7469 21.8771 86.8064 23.9686H84.972C84.8619 22.7589 83.861 22.0286 82.3969 22.0286C80.9328 22.0286 79.9311 22.7675 79.9311 23.8428C79.9311 24.6998 80.5708 25.2041 82.1359 25.5902L83.474 25.9181C85.9654 26.5063 87.0003 27.5054 87.0003 29.2786C87.0003 31.5465 85.1908 32.9669 82.3124 32.9669C79.6204 32.9669 77.802 31.5798 77.6846 29.3872L79.5449 29.3873Z" fill="#F0EEEE"/>
<path d="M90.9196 21.8364V23.928H92.6031V25.3646H90.9196V30.237C90.9196 30.9939 91.2567 31.3467 91.9967 31.3467C92.1966 31.3432 92.3965 31.3291 92.5948 31.3047V32.7327C92.2622 32.7948 91.9235 32.8229 91.5856 32.8166C89.7934 32.8166 89.0942 32.1445 89.0942 30.4305V25.3646H87.8066V23.928H89.0942V21.8364H90.9196Z" fill="#F0EEEE"/>
<path d="M93.582 28.3471C93.582 25.5663 95.2226 23.8188 97.7804 23.8188C100.347 23.8188 101.98 25.5663 101.98 28.3471C101.98 31.1355 100.356 32.8753 97.7804 32.8753C95.206 32.8753 93.582 31.1355 93.582 28.3471ZM100.128 28.3471C100.128 26.4395 99.2528 25.3137 97.7804 25.3137C96.308 25.3137 95.4331 26.4481 95.4331 28.3471C95.4331 30.2623 96.308 31.3796 97.7804 31.3796C99.2528 31.3796 100.128 30.2623 100.128 28.3471Z" fill="#F0EEEE"/>
<path d="M103.479 23.9259H105.212V25.4302H105.253C105.371 24.9604 105.646 24.5452 106.034 24.2545C106.422 23.9637 106.898 23.815 107.383 23.8334C107.592 23.8328 107.801 23.8555 108.006 23.9012V25.598C107.741 25.5174 107.466 25.4804 107.189 25.4884C106.925 25.4777 106.662 25.5242 106.418 25.6246C106.174 25.7251 105.954 25.8771 105.774 26.0703C105.594 26.2635 105.458 26.4932 105.376 26.7438C105.293 26.9943 105.265 27.2598 105.296 27.5218V32.7641H103.479V23.9259Z" fill="#F0EEEE"/>
<path d="M116.384 30.1701C116.14 31.7745 114.575 32.8755 112.573 32.8755C109.998 32.8755 108.398 31.1529 108.398 28.3893C108.398 25.617 110.006 23.8191 112.496 23.8191C114.946 23.8191 116.485 25.4988 116.485 28.1786V28.8001H110.233V28.9098C110.204 29.235 110.245 29.5627 110.353 29.8711C110.461 30.1793 110.633 30.4612 110.858 30.6981C111.083 30.9348 111.356 31.121 111.659 31.2443C111.962 31.3676 112.288 31.4252 112.614 31.4132C113.044 31.4534 113.475 31.3541 113.843 31.1301C114.212 30.9061 114.498 30.5694 114.659 30.1701H116.384ZM110.242 27.5322H114.667C114.684 27.2398 114.639 26.9471 114.537 26.6726C114.434 26.3981 114.277 26.1477 114.073 25.937C113.869 25.7264 113.623 25.5601 113.352 25.4486C113.081 25.3372 112.789 25.2828 112.496 25.2891C112.2 25.2873 111.907 25.3441 111.633 25.4561C111.359 25.5681 111.11 25.7332 110.9 25.9418C110.691 26.1502 110.525 26.3982 110.412 26.6712C110.298 26.9442 110.241 27.2368 110.242 27.5322Z" fill="#F0EEEE"/>
<path d="M44.3115 17.3439V11.5193H46.6566C47.7528 11.5193 48.4117 12.0761 48.4117 12.9721C48.4119 13.2665 48.3102 13.5519 48.1239 13.7801C47.9375 14.0081 47.6779 14.1649 47.389 14.2238V14.2925C47.7474 14.3094 48.0851 14.4651 48.3305 14.7266C48.5758 14.988 48.7094 15.3347 48.7029 15.6929C48.7029 16.7182 47.9553 17.344 46.7092 17.344L44.3115 17.3439ZM45.2176 13.9854H46.2928C47.0939 13.9854 47.5103 13.6909 47.5103 13.138C47.5103 12.6008 47.1178 12.2862 46.4465 12.2862H45.2176V13.9854ZM46.5277 16.577C47.3441 16.577 47.7766 16.2458 47.7766 15.6285C47.7766 15.0189 47.3278 14.7 46.4752 14.7H45.2176V16.577H46.5277Z" fill="#F0EEEE"/>
<path d="M49.6328 16.1018C49.6328 15.3106 50.223 14.8544 51.2704 14.7896L52.463 14.7209V14.3415C52.463 13.8772 52.1556 13.6151 51.5617 13.6151C51.0766 13.6151 50.7405 13.7929 50.644 14.1036H49.8028C49.8916 13.3486 50.603 12.8644 51.6017 12.8644C52.7055 12.8644 53.3281 13.413 53.3281 14.3415V17.3449H52.4917V16.7272H52.4229C52.2834 16.9487 52.0874 17.1294 51.8551 17.2507C51.6228 17.372 51.3623 17.4294 51.1004 17.4174C50.9156 17.4366 50.7288 17.4168 50.5521 17.3596C50.3753 17.3023 50.2126 17.2086 50.0743 17.0846C49.936 16.9607 49.8253 16.8092 49.7493 16.6399C49.6732 16.4706 49.6336 16.2873 49.6328 16.1018ZM52.463 15.7262V15.3587L51.3879 15.4273C50.7815 15.4679 50.5065 15.6738 50.5065 16.0613C50.5065 16.4569 50.8503 16.6871 51.3229 16.6871C51.4614 16.7011 51.6013 16.6872 51.7343 16.6461C51.8673 16.605 51.9907 16.5376 52.0971 16.4479C52.2034 16.3583 52.2906 16.2482 52.3535 16.1242C52.4164 16.0002 52.4536 15.8649 52.463 15.7262Z" fill="#F0EEEE"/>
<path d="M54.5762 11.6495C54.5695 11.5371 54.5967 11.4254 54.6544 11.3286C54.712 11.2319 54.7975 11.1548 54.8996 11.107C55.0018 11.0593 55.1159 11.0434 55.2271 11.0611C55.3385 11.079 55.4419 11.1298 55.524 11.2069C55.6061 11.2841 55.663 11.384 55.6876 11.4939C55.7121 11.6038 55.703 11.7184 55.6615 11.8231C55.62 11.9278 55.5479 12.0175 55.4547 12.0808C55.3615 12.1441 55.2514 12.178 55.1386 12.1781C55.0666 12.1818 54.9945 12.1709 54.9268 12.146C54.8591 12.1212 54.797 12.0829 54.7445 12.0335C54.692 11.9842 54.65 11.9247 54.6211 11.8587C54.5921 11.7927 54.5769 11.7215 54.5762 11.6495ZM54.7051 12.9493H55.5712V17.3451H54.7051V12.9493Z" fill="#F0EEEE"/>
<path d="M58.5528 15.7867L57.5903 17.3448H56.6365L58.0964 15.1569L56.624 12.9491H57.6391L58.5853 14.4992H58.654L59.5918 12.9491H60.5581L59.1067 15.1207L60.5743 17.3448H59.5764L58.6177 15.7867H58.5528Z" fill="#F0EEEE"/>
<path d="M61.3408 16.1018C61.3408 15.3106 61.9309 14.8544 62.9784 14.7896L64.171 14.7209V14.3415C64.171 13.8772 63.8636 13.6151 63.2697 13.6151C62.7846 13.6151 62.4485 13.7929 62.352 14.1036H61.5108C61.5996 13.3486 62.311 12.8644 63.3097 12.8644C64.4136 12.8644 65.0361 13.413 65.0361 14.3415V17.3449H64.1997V16.7272H64.1309C63.9914 16.9487 63.7954 17.1294 63.5631 17.2507C63.3308 17.372 63.0703 17.4294 62.8084 17.4174C62.6236 17.4366 62.4368 17.4168 62.2601 17.3596C62.0833 17.3023 61.9206 17.2086 61.7823 17.0846C61.644 16.9607 61.5333 16.8092 61.4573 16.6399C61.3812 16.4706 61.3416 16.2873 61.3408 16.1018ZM64.171 15.7262V15.3587L63.0959 15.4273C62.4895 15.4679 62.2145 15.6738 62.2145 16.0613C62.2145 16.4569 62.5582 16.6871 63.0309 16.6871C63.1694 16.7011 63.3094 16.6872 63.4423 16.6461C63.5753 16.605 63.6986 16.5376 63.8051 16.4479C63.9114 16.3583 63.9986 16.2482 64.0615 16.1242C64.1244 16.0002 64.1616 15.8649 64.171 15.7262Z" fill="#F0EEEE"/>
<path d="M66.3965 12.9494H67.233V13.6234H67.2979C67.3915 13.3894 67.557 13.191 67.7706 13.0569C67.9843 12.9227 68.2349 12.8595 68.4867 12.8765C68.6169 12.8747 68.7468 12.8869 68.8744 12.9127V13.7688C68.7149 13.7347 68.5524 13.7172 68.3893 13.7164C68.246 13.7035 68.1015 13.7207 67.9653 13.7669C67.8291 13.8131 67.704 13.8873 67.5981 13.9846C67.4923 14.0819 67.4081 14.2002 67.3507 14.3321C67.2934 14.4638 67.2644 14.6061 67.2654 14.7497V17.3451H66.3965V12.9494Z" fill="#F0EEEE"/>
<path d="M72.2227 12.9508H73.0597V13.6491H73.1246C73.2348 13.3983 73.4205 13.1881 73.656 13.0477C73.8916 12.9073 74.1651 12.8438 74.4385 12.866C74.6527 12.8499 74.8679 12.8822 75.0679 12.9604C75.2679 13.0385 75.4478 13.1607 75.5942 13.3177C75.7405 13.4747 75.8496 13.6626 75.9134 13.8674C75.9771 14.0723 75.9939 14.2887 75.9625 14.5009V17.3466H75.0935V14.7188C75.0935 14.0123 74.786 13.661 74.1434 13.661C73.998 13.6543 73.8528 13.679 73.7178 13.7335C73.5828 13.7881 73.4612 13.871 73.3614 13.9768C73.2615 14.0827 73.1857 14.2088 73.1393 14.3465C73.0928 14.4843 73.0767 14.6305 73.0921 14.775V17.3466H72.2227L72.2227 12.9508Z" fill="#F0EEEE"/>
<path d="M77.0557 16.1018C77.0557 15.3106 77.6457 14.8544 78.6934 14.7896L79.886 14.7209V14.3415C79.886 13.8772 79.5782 13.6151 78.9846 13.6151C78.4996 13.6151 78.1633 13.7929 78.0669 14.1036H77.2256C77.3144 13.3486 78.0258 12.8644 79.0246 12.8644C80.1281 12.8644 80.7511 13.413 80.7511 14.3415V17.3449H79.9146V16.7272H79.846C79.7065 16.9487 79.5103 17.1294 79.278 17.2507C79.0457 17.372 78.7855 17.4294 78.523 17.4174C78.3385 17.4366 78.1516 17.4168 77.9749 17.3596C77.7982 17.3023 77.6354 17.2086 77.4971 17.0846C77.3588 16.9607 77.2481 16.8092 77.172 16.6399C77.096 16.4706 77.0564 16.2873 77.0557 16.1018ZM79.886 15.7262V15.3587L78.8104 15.4273C78.2044 15.4679 77.9294 15.6738 77.9294 16.0613C77.9294 16.4569 78.2731 16.6871 78.7455 16.6871C78.8843 16.7011 79.0238 16.6872 79.1573 16.6461C79.2901 16.605 79.4138 16.5376 79.5201 16.4479C79.6265 16.3583 79.7132 16.2482 79.7766 16.1242C79.8392 16.0002 79.8762 15.8649 79.886 15.7262Z" fill="#F0EEEE"/>
</g>
<rect x="3.5" y="3.5" width="131" height="40" rx="7" stroke="#BD0B0B" shape-rendering="crispEdges"/>
</g>
<defs>
<filter id="filter0_d_889_1253" x="0" y="0" width="142" height="51" filterUnits="userSpaceOnUse" color-interpolation-filters="sRGB">
<feFlood flood-opacity="0" result="BackgroundImageFix"/>
<feColorMatrix in="SourceAlpha" type="matrix" values="0 0 0 0 0 0 0 0 0 0 0 0 0 0 0 0 0 0 127 0" result="hardAlpha"/>
<feOffset dx="2" dy="2"/>
<feGaussianBlur stdDeviation="2.5"/>
<feComposite in2="hardAlpha" operator="out"/>
<feColorMatrix type="matrix" values="0 0 0 0 0 0 0 0 0 0 0 0 0 0 0 0 0 0 0.25 0"/>
<feBlend mode="normal" in2="BackgroundImageFix" result="effect1_dropShadow_889_1253"/>
<feBlend mode="normal" in="SourceGraphic" in2="effect1_dropShadow_889_1253" result="shape"/>
</filter>
<clipPath id="clip0_889_1253">
<rect x="3" y="3" width="132" height="41" rx="7.5" fill="white"/>
</clipPath>
</defs>
</svg>
