<svg width="12" height="12" viewBox="0 0 12 12" fill="none" xmlns="http://www.w3.org/2000/svg">
<path fill-rule="evenodd" clip-rule="evenodd" d="M0.206663 11.7926C0.0743366 11.6603 0 11.4808 0 11.2936C0 11.1065 0.0743366 10.927 0.206663 10.7946L9.59023 1.41162H3.5298C3.3426 1.41162 3.16306 1.33725 3.03069 1.20489C2.89832 1.07253 2.82395 0.893 2.82395 0.705808C2.82395 0.518616 2.89832 0.339091 3.03069 0.206727C3.16306 0.0743619 3.3426 0 3.5298 0H11.2942C11.4814 0 11.6609 0.0743619 11.7933 0.206727C11.9256 0.339091 12 0.518616 12 0.705808V8.4697C12 8.65689 11.9256 8.83642 11.7933 8.96878C11.6609 9.10114 11.4814 9.17551 11.2942 9.17551C11.1069 9.17551 10.9274 9.10114 10.795 8.96878C10.6627 8.83642 10.5883 8.65689 10.5883 8.4697V2.40963L1.20615 11.7926C1.14058 11.8584 1.06269 11.9105 0.976934 11.9461C0.89118 11.9817 0.799248 12 0.706405 12C0.613561 12 0.521629 11.9817 0.435876 11.9461C0.350122 11.9105 0.27223 11.8584 0.206663 11.7926Z" fill="#FFF4F4"/>
</svg>
