<svg width="24" height="24" viewBox="0 0 24 24" fill="none" xmlns="http://www.w3.org/2000/svg">
<path d="M10.0444 19.7143H22V21.4286H10.0444V19.7143ZM4.21178 20.5714L2.00854 22.7829L3.21264 24L6.62852 20.5714L3.21264 17.1429L2 18.3514L4.21178 20.5714ZM10.0444 11.1429H22V12.8571H10.0444V11.1429ZM4.21178 12L2.00854 14.2114L3.21264 15.4286L6.62852 12L3.21264 8.57143L2 9.78L4.21178 12ZM10.0444 2.57143H22V4.28571H10.0444V2.57143ZM4.21178 3.42857L2.00854 5.64L3.21264 6.85714L6.62852 3.42857L3.21264 0L2 1.20857L4.21178 3.42857Z" fill="#FFF4F4"/>
</svg>
