<svg width="21" height="26" viewBox="0 0 21 26" fill="none" xmlns="http://www.w3.org/2000/svg">
<path d="M4.58233 3.0417C7.9381 6.755 13.4727 -1.25829 16.748 1.64996C18.6317 3.32244 18.0354 7.01775 15.5903 9.42449M12.7456 15.3802C12.7672 14.9782 12.8788 14.244 12.2693 13.6861C12.0364 13.4827 11.7645 13.3288 11.4702 13.2338C10.2129 12.7899 8.66756 14.274 9.76056 15.6333C10.3484 16.3628 10.8008 16.5871 10.7588 17.4162C10.7288 17.9993 10.1553 18.6088 9.40063 18.8415C8.74435 19.0431 8.02089 18.7755 7.56377 18.2644C7.00468 17.6405 7.05987 17.0515 7.05627 16.7947M12.2693 13.6873L12.958 12.9974M7.61296 18.3424L6.95909 18.9963M18.1243 6.56047C19.234 6.77403 19.4836 7.47469 19.8147 9.42073C20.1135 11.1724 20.1975 13.2756 20.1975 14.1718C20.1655 14.5004 20.0317 14.8108 19.8147 15.0597C17.4932 17.4928 12.8848 22.0879 10.5597 24.3699C9.64785 25.1858 8.2705 25.2038 7.30109 24.4551C5.31786 22.671 3.41262 20.6542 1.54577 18.833C0.795911 17.8671 0.813908 16.4934 1.62975 15.584C4.09049 13.032 8.54285 8.66367 11.0552 6.24972C11.3071 6.03376 11.6167 5.89939 11.9466 5.8694C12.5105 5.8694 13.4775 5.94498 14.4205 5.99897" stroke="#FFF4F4" stroke-width="1.5" stroke-linecap="round" stroke-linejoin="round"/>
</svg>
