<svg width="24" height="24" viewBox="0 0 24 24" fill="none" xmlns="http://www.w3.org/2000/svg">
<g clip-path="url(#clip0_1248_3846)">
<path d="M23.0769 0C23.3217 0 23.5565 0.0972526 23.7296 0.270363C23.9027 0.443474 24 0.678262 24 0.923077V15.6923C24 15.9371 23.9027 16.1719 23.7296 16.345C23.5565 16.5181 23.3217 16.6154 23.0769 16.6154C22.8321 16.6154 22.5973 16.5181 22.4242 16.345C22.2511 16.1719 22.1538 15.9371 22.1538 15.6923V0.923077C22.1538 0.678262 22.2511 0.443474 22.4242 0.270363C22.5973 0.0972526 22.8321 0 23.0769 0ZM5.808 5.808C5.89375 5.72204 5.99561 5.65383 6.10775 5.6073C6.2199 5.56076 6.34012 5.53681 6.46154 5.53681C6.58296 5.53681 6.70318 5.56076 6.81532 5.6073C6.92747 5.65383 7.02933 5.72204 7.11508 5.808L18.192 16.8849C18.3653 17.0583 18.4627 17.2933 18.4627 17.5385C18.4627 17.7836 18.3653 18.0187 18.192 18.192C18.0187 18.3653 17.7836 18.4627 17.5385 18.4627C17.2933 18.4627 17.0583 18.3653 16.8849 18.192L5.808 7.11508C5.72204 7.02933 5.65383 6.92747 5.6073 6.81532C5.56076 6.70318 5.53681 6.58296 5.53681 6.46154C5.53681 6.34012 5.56076 6.2199 5.6073 6.10775C5.65383 5.99561 5.72204 5.89375 5.808 5.808ZM0.923077 22.1538C0.678262 22.1538 0.443474 22.2511 0.270363 22.4242C0.0972526 22.5973 0 22.8321 0 23.0769C0 23.3217 0.0972526 23.5565 0.270363 23.7296C0.443474 23.9027 0.678262 24 0.923077 24H15.6923C15.9371 24 16.1719 23.9027 16.345 23.7296C16.5181 23.5565 16.6154 23.3217 16.6154 23.0769C16.6154 22.8321 16.5181 22.5973 16.345 22.4242C16.1719 22.2511 15.9371 22.1538 15.6923 22.1538H0.923077Z" fill="#FFF4F4"/>
</g>
<defs>
<clipPath id="clip0_1248_3846">
<rect width="24" height="24" fill="white"/>
</clipPath>
</defs>
</svg>
