<svg width="24" height="24" viewBox="0 0 24 24" fill="none" xmlns="http://www.w3.org/2000/svg">
<path d="M18.3511 15.2599C18.1154 16.5474 17.4819 17.7333 16.536 18.6581C15.59 19.5828 14.377 20.202 13.0602 20.4322C13.0102 20.4399 12.9597 20.444 12.9091 20.4444C12.6811 20.4444 12.4614 20.3605 12.2936 20.2095C12.1258 20.0585 12.0222 19.8513 12.0034 19.6291C11.9845 19.4069 12.0517 19.1859 12.1917 19.0099C12.3317 18.8338 12.5342 18.7157 12.7591 18.6789C14.642 18.3688 16.2398 16.8066 16.5591 14.9622C16.5995 14.7296 16.7327 14.5223 16.9294 14.3859C17.1261 14.2494 17.3702 14.1949 17.608 14.2344C17.8457 14.2739 18.0578 14.4041 18.1973 14.5964C18.3369 14.7888 18.3927 15.0274 18.3523 15.2599H18.3511ZM22 14.2221C22 16.8154 20.9464 19.3024 19.0711 21.1361C17.1957 22.9698 14.6522 24 12 24C9.34784 24 6.8043 22.9698 4.92893 21.1361C3.05357 19.3024 2 16.8154 2 14.2221C2 11.1199 3.25 7.94766 5.71136 4.7943C5.78928 4.69445 5.88794 4.61188 6.00086 4.55203C6.11378 4.49217 6.23839 4.45639 6.36648 4.44705C6.49457 4.43771 6.62323 4.45501 6.74399 4.49782C6.86474 4.54063 6.97484 4.60797 7.06705 4.69541L9.80795 7.29654L12.308 0.584269C12.3579 0.450394 12.44 0.330224 12.5474 0.233887C12.6548 0.137551 12.7843 0.0678732 12.925 0.0307283C13.0657 -0.00641666 13.2135 -0.00994007 13.3559 0.0204552C13.4983 0.0508505 13.6311 0.114274 13.7432 0.205377C16.2284 2.22206 22 7.61654 22 14.2221ZM20.1818 14.2221C20.1818 9.101 16.1148 4.67541 13.567 2.40762L11.0364 9.19322C10.9844 9.33259 10.8976 9.45703 10.7839 9.55521C10.6702 9.65339 10.5332 9.72218 10.3853 9.75532C10.2374 9.78845 10.0834 9.78488 9.93733 9.74493C9.79124 9.70497 9.65769 9.6299 9.54886 9.52656L6.55227 6.68432C4.7375 9.24545 3.81818 11.7777 3.81818 14.2221C3.81818 16.3439 4.68019 18.3787 6.21458 19.879C7.74897 21.3793 9.83005 22.2222 12 22.2222C14.17 22.2222 16.251 21.3793 17.7854 19.879C19.3198 18.3787 20.1818 16.3439 20.1818 14.2221Z" fill="#FFF4F4"/>
</svg>
