<svg width="26" height="26" viewBox="0 0 26 26" fill="none" xmlns="http://www.w3.org/2000/svg">
<path d="M10.6244 15.3756L7.62946 18.3705M7.70973 20.7964C7.88289 20.6338 8.02161 20.4381 8.11766 20.2209C8.21371 20.0036 8.26513 19.7693 8.26887 19.5318C8.2726 19.2943 8.22858 19.0585 8.13941 18.8383C8.05024 18.6182 7.91775 18.4182 7.74979 18.2502C7.58183 18.0823 7.38184 17.9498 7.16168 17.8606C6.94153 17.7714 6.7057 17.7274 6.4682 17.7311C6.2307 17.7349 5.99638 17.7863 5.77914 17.8823C5.56189 17.9784 5.36617 18.1171 5.20358 18.2903L1.55936 21.9345C1.3862 22.0971 1.24748 22.2928 1.15143 22.51C1.05538 22.7273 1.00396 22.9616 1.00022 23.1991C0.996482 23.4366 1.04051 23.6724 1.12968 23.8926C1.21884 24.1128 1.35134 24.3127 1.5193 24.4807C1.68725 24.6487 1.88725 24.7812 2.1074 24.8703C2.32756 24.9595 2.56339 25.0035 2.80089 24.9998C3.03838 24.996 3.27271 24.9446 3.48995 24.8486C3.70719 24.7525 3.90292 24.6138 4.06551 24.4406L7.70973 20.7964ZM8.22845 9.38578C8.22845 7.16173 9.11195 5.02878 10.6846 3.45614C12.2572 1.8835 14.3902 1 16.6142 1C18.8383 1 20.9712 1.8835 22.5439 3.45614C24.1165 5.02878 25 7.16173 25 9.38578C25 11.6098 24.1165 13.7428 22.5439 15.3154C20.9712 16.8881 18.8383 17.7716 16.6142 17.7716C14.3902 17.7716 12.2572 16.8881 10.6846 15.3154C9.11195 13.7428 8.22845 11.6098 8.22845 9.38578Z" stroke="#FFF4F4" stroke-linecap="round" stroke-linejoin="round"/>
</svg>
