<svg width="142" height="51" viewBox="0 0 142 51" fill="none" xmlns="http://www.w3.org/2000/svg">
<g filter="url(#filter0_d_889_1230)">
<g clip-path="url(#clip0_889_1230)">
<path d="M124.488 3.00004H13.5176C13.1131 3.00004 12.7135 3.00004 12.31 3.00209C11.9723 3.00414 11.6373 3.01009 11.2963 3.0151C10.5556 3.0232 9.81667 3.08375 9.08591 3.19623C8.35613 3.31115 7.64923 3.52782 6.98907 3.83891C6.32974 4.15262 5.72731 4.56026 5.20353 5.04704C4.67706 5.53244 4.23819 6.09353 3.90382 6.70868C3.56854 7.3226 3.33605 7.98044 3.21439 8.6596C3.09157 9.33784 3.02548 10.0239 3.01671 10.7116C3.00648 11.0259 3.00539 11.3412 3 11.6556V35.3475C3.00539 35.6658 3.00648 35.9741 3.01671 36.2925C3.02548 36.9801 3.09157 37.6662 3.21439 38.3444C3.33571 39.0239 3.56821 39.6822 3.90382 40.2963C4.23803 40.9094 4.67696 41.4683 5.20353 41.951C5.72526 42.4399 6.32809 42.8478 6.98907 43.1591C7.64922 43.471 8.35607 43.689 9.08591 43.8057C9.81684 43.9172 10.5557 43.9778 11.2963 43.9869C11.6373 43.9939 11.9723 43.9979 12.31 43.9979C12.7135 43.9999 13.1131 43.9999 13.5176 43.9999H124.488C124.885 43.9999 125.288 43.9999 125.684 43.9979C126.02 43.9979 126.365 43.9939 126.701 43.9869C127.44 43.9783 128.177 43.9178 128.907 43.8057C129.639 43.6882 130.349 43.4703 131.012 43.1591C131.672 42.8476 132.275 42.4397 132.796 41.951C133.321 41.4664 133.761 40.908 134.099 40.2963C134.433 39.6817 134.663 39.0235 134.782 38.3444C134.906 37.6661 134.973 36.9802 134.987 36.2925C134.992 35.9741 134.992 35.6658 134.992 35.3475C135 34.9751 135 34.6048 135 34.2264V12.7743C135 12.3989 135 12.0265 134.992 11.6552C134.992 11.3408 134.992 11.0255 134.987 10.7112C134.973 10.0234 134.906 9.33754 134.782 8.65922C134.663 7.9805 134.432 7.32269 134.099 6.7083C133.418 5.47534 132.339 4.47167 131.012 3.83853C130.349 3.52821 129.639 3.3116 128.907 3.19585C128.178 3.08288 127.44 3.02231 126.701 3.01467C126.365 3.00967 126.02 3.00366 125.684 3.00166C125.288 2.99961 124.885 3.00004 124.488 3.00004Z" fill="#D10C0C"/>
<path d="M12.9849 12.1305C12.7075 12.4221 12.5449 12.8735 12.5449 13.4472V34.2505C12.5449 34.8336 12.7075 35.2851 12.9849 35.5672L13.0519 35.633L24.9032 23.9899V23.8489V23.7078L13.0519 12.0647L12.9849 12.1305Z" fill="url(#paint0_linear_889_1230)"/>
<path d="M28.8538 27.8749L24.9033 23.9908V23.8497V23.7086L28.8538 19.8245L28.9398 19.8715L33.6172 22.486C34.9564 23.229 34.9564 24.4516 33.6172 25.204L28.9398 27.8185L28.8538 27.8749Z" fill="url(#paint1_linear_889_1230)"/>
<path d="M28.9401 27.8177L24.9036 23.8489L12.9854 35.5672C13.4254 36.028 14.1523 36.0845 14.9749 35.6236L28.9401 27.8177Z" fill="url(#paint2_linear_889_1230)"/>
<path d="M28.9399 19.8808L14.9652 12.0748C14.1425 11.614 13.4156 11.6704 12.9756 12.1312L24.9034 23.8496L28.9399 19.8808Z" fill="url(#paint3_linear_889_1230)"/>
<path opacity="0.2" d="M28.854 27.7327L14.9654 35.4916C14.1906 35.9242 13.4923 35.896 13.0523 35.501L12.9854 35.5668L13.0523 35.6327C13.5019 36.0277 14.1906 36.0559 14.9654 35.6233L28.9401 27.8173L28.854 27.7327Z" fill="black"/>
<path opacity="0.12" d="M10.8723 28.7824C10.6536 28.5526 10.5254 28.1967 10.5254 27.7444V27.8556C10.5254 28.3153 10.6536 28.6712 10.8723 28.8936L10.9251 28.8417L10.8723 28.7824Z" fill="black"/>
<path opacity="0.12" d="M33.6168 25.0715L28.8438 27.733L28.9298 27.8177L33.6072 25.2032C34.2768 24.827 34.6116 24.3379 34.6116 23.8489C34.5637 24.2909 34.229 24.7329 33.6168 25.0715Z" fill="black"/>
<path opacity="0.25" d="M14.9647 12.2077L33.6169 22.6282C34.2195 22.9667 34.5639 23.3994 34.6212 23.8508C34.6212 23.3617 34.2865 22.8633 33.6169 22.4965L14.9647 12.076C13.6256 11.333 12.5352 11.9538 12.5352 13.4585V13.5996C12.5352 12.0854 13.6352 11.4647 14.9647 12.2077Z" fill="#F0EEEE"/>
<path d="M68.1776 25.6666C65.9298 25.6666 64.0933 27.35 64.0933 29.6636C64.0933 31.9678 65.9298 33.6606 68.1776 33.6606C70.4254 33.6606 72.262 31.9678 72.262 29.6636C72.262 27.35 70.4254 25.6666 68.1776 25.6666ZM68.1776 32.09C66.9437 32.09 65.8819 31.0931 65.8819 29.6636C65.8819 28.2247 66.9437 27.2372 68.1776 27.2372C69.4115 27.2372 70.4733 28.2247 70.4733 29.6636C70.4733 31.0931 69.4019 32.09 68.1776 32.09ZM59.2628 25.6666C57.015 25.6666 55.1785 27.35 55.1785 29.6636C55.1785 31.9678 57.015 33.6606 59.2628 33.6606C61.5106 33.6606 63.3472 31.9678 63.3472 29.6636C63.3472 27.35 61.5106 25.6666 59.2628 25.6666ZM59.2628 32.09C58.0289 32.09 56.9672 31.0931 56.9672 29.6636C56.9672 28.2247 58.0289 27.2372 59.2628 27.2372C60.4967 27.2372 61.5585 28.2247 61.5585 29.6636C61.5585 31.0931 60.4967 32.09 59.2628 32.09ZM48.6646 26.8986V28.5915H52.7967C52.6724 29.5413 52.3472 30.2467 51.8593 30.7263C51.2567 31.3188 50.3193 31.9678 48.6741 31.9678C46.1298 31.9678 44.1402 29.9551 44.1402 27.4535C44.1402 24.9518 46.1298 22.9392 48.6741 22.9392C50.0419 22.9392 51.0463 23.4659 51.7828 24.1524L52.9976 22.958C51.9646 21.9893 50.5967 21.2463 48.6646 21.2463C45.1828 21.2463 42.2559 24.0301 42.2559 27.4629C42.2559 30.8862 45.1828 33.6794 48.6646 33.6794C50.5489 33.6794 51.9646 33.0775 53.0741 31.9396C54.2124 30.8204 54.5663 29.2404 54.5663 27.9707C54.5663 27.5757 54.5376 27.209 54.4706 26.908H48.6646V26.8986ZM92.0046 28.2153C91.6698 27.3218 90.6367 25.6666 88.5228 25.6666C86.428 25.6666 84.6872 27.2842 84.6872 29.6636C84.6872 31.9019 86.4089 33.6606 88.7237 33.6606C90.5889 33.6606 91.6698 32.5415 92.1098 31.8925L90.7228 30.9803C90.2637 31.648 89.6324 32.09 88.7237 32.09C87.815 32.09 87.1646 31.6762 86.7533 30.8768L92.1959 28.6667L92.0046 28.2153ZM86.4567 29.5507C86.4089 28.0084 87.6715 27.2184 88.5802 27.2184C89.288 27.2184 89.8906 27.5663 90.0915 28.0648L86.4567 29.5507ZM82.0376 33.4255H83.8263V21.6696H82.0376V33.4255ZM79.1106 26.56H79.0437C78.6419 26.0898 77.8767 25.6666 76.9011 25.6666C74.8637 25.6666 72.9985 27.4253 72.9985 29.6824C72.9985 31.9207 74.8637 33.67 76.9011 33.67C77.8672 33.67 78.6419 33.2468 79.0437 32.7578H79.1011V33.3315C79.1011 34.8644 78.2689 35.6826 76.9298 35.6826C75.8393 35.6826 75.1602 34.9115 74.8828 34.2625L73.3237 34.9021C73.7732 35.9648 74.9593 37.2626 76.9298 37.2626C79.0246 37.2626 80.7941 36.0494 80.7941 33.0963V25.9111H79.1011V26.56H79.1106ZM77.0541 32.09C75.8202 32.09 74.7872 31.0743 74.7872 29.6824C74.7872 28.2717 75.8202 27.2466 77.0541 27.2466C78.2689 27.2466 79.2254 28.2811 79.2254 29.6824C79.235 31.0743 78.2785 32.09 77.0541 32.09ZM100.384 21.6696H96.108V33.4255H97.8967V28.9676H100.393C102.373 28.9676 104.315 27.5569 104.315 25.3186C104.315 23.0803 102.354 21.6696 100.384 21.6696ZM100.422 27.3312H97.8872V23.2966H100.422C101.761 23.2966 102.517 24.3875 102.517 25.3092C102.517 26.2309 101.761 27.3312 100.422 27.3312ZM111.46 25.6478C110.169 25.6478 108.83 26.2121 108.275 27.4441L109.863 28.093C110.198 27.4441 110.829 27.2278 111.489 27.2278C112.407 27.2278 113.354 27.7732 113.364 28.7419V28.8642C113.038 28.6855 112.35 28.4128 111.498 28.4128C109.786 28.4128 108.055 29.3344 108.055 31.0555C108.055 32.6261 109.452 33.6418 111.02 33.6418C112.216 33.6418 112.885 33.1151 113.297 32.4944H113.354V33.4067H115.076V28.9018C115.085 26.814 113.498 25.6478 111.46 25.6478ZM111.24 32.09C110.657 32.09 109.844 31.7985 109.844 31.0931C109.844 30.1903 110.858 29.8423 111.738 29.8423C112.522 29.8423 112.895 30.0116 113.364 30.2373C113.23 31.3188 112.273 32.09 111.24 32.09ZM121.36 25.9017L119.313 30.9991H119.256L117.132 25.9017H115.21L118.395 33.0305L116.578 36.9899H118.443L123.35 25.9017H121.36ZM105.291 33.4255H107.079V21.6696H105.291V33.4255Z" fill="#F0EEEE"/>
<path d="M42.543 17.437V11.7942H44.303C45.183 11.7942 45.8908 12.0575 46.4169 12.5748C46.943 13.1015 47.2108 13.7786 47.2108 14.6156C47.2108 15.4526 46.943 16.1298 46.4169 16.6565C45.8812 17.1737 45.1734 17.437 44.2934 17.437H42.543ZM43.2795 16.7411H44.2934C44.9534 16.7411 45.4795 16.553 45.8717 16.1768C46.2638 15.8006 46.4551 15.2834 46.4551 14.6062C46.4551 13.9385 46.2638 13.4212 45.8717 13.045C45.4795 12.6688 44.963 12.4807 44.2934 12.4807H43.2795V16.7411Z" fill="#F0EEEE" stroke="#F0EEEE" stroke-width="0.190217" stroke-miterlimit="10"/>
<path d="M48.2441 17.437V11.7942H48.9807V17.437H48.2441Z" fill="#F0EEEE" stroke="#F0EEEE" stroke-width="0.190217" stroke-miterlimit="10"/>
<path d="M51.9071 17.5591C51.4863 17.5591 51.0845 17.4275 50.6828 17.1547C50.281 16.882 50.0228 16.5152 49.8984 16.0262L50.568 15.7628C50.6445 16.0732 50.8071 16.3365 51.0558 16.5434C51.3045 16.7597 51.5819 16.8632 51.8976 16.8632C52.2132 16.8632 52.4906 16.7785 52.7202 16.6187C52.9497 16.4494 53.0645 16.2331 53.0645 15.9415C53.0645 15.6312 52.9497 15.3866 52.7202 15.2174C52.4906 15.0481 52.1367 14.8882 51.6393 14.7377C51.1324 14.5778 50.7497 14.3803 50.4819 14.1264C50.2237 13.8725 50.0897 13.5621 50.0897 13.1671C50.0897 12.7627 50.2524 12.4147 50.5776 12.1138C50.9028 11.8128 51.3332 11.6624 51.8497 11.6624C52.3376 11.6624 52.7297 11.7846 53.0358 12.0197C53.3419 12.2549 53.5428 12.5182 53.6289 12.8003L52.9593 13.0731C52.9115 12.8944 52.7967 12.7251 52.6054 12.5746C52.4141 12.4241 52.175 12.3489 51.8689 12.3489C51.5819 12.3489 51.3428 12.4241 51.1419 12.584C50.941 12.7439 50.8454 12.932 50.8454 13.1671C50.8454 13.374 50.941 13.5527 51.1228 13.7032C51.3045 13.8443 51.5819 13.9759 51.9358 14.0888C52.2228 14.1828 52.4524 14.2675 52.6437 14.3521C52.835 14.4368 53.0263 14.5496 53.2176 14.6907C53.4089 14.8318 53.5619 15.001 53.6576 15.2079C53.7532 15.4149 53.8106 15.6594 53.8106 15.9321C53.8106 16.2049 53.7532 16.4494 53.6384 16.6657C53.5237 16.882 53.3706 17.0513 53.1793 17.1735C52.988 17.2958 52.7871 17.3993 52.5671 17.4651C52.3663 17.5309 52.1367 17.5591 51.9071 17.5591Z" fill="#F0EEEE" stroke="#F0EEEE" stroke-width="0.190217" stroke-miterlimit="10"/>
<path d="M55.6193 17.437H54.8828V11.7942H56.8341C57.3219 11.7942 57.7428 11.9541 58.0967 12.2738C58.4506 12.5936 58.6324 12.9886 58.6324 13.4776C58.6324 13.9573 58.4506 14.3617 58.0967 14.6815C57.7428 15.0012 57.3219 15.1611 56.8341 15.1611H55.6193V17.437ZM55.6193 14.4557H56.8533C57.1593 14.4557 57.408 14.3523 57.5993 14.1454C57.7906 13.9385 57.8767 13.7128 57.8767 13.4682C57.8767 13.2237 57.7811 12.998 57.5993 12.7911C57.408 12.5842 57.1593 12.4807 56.8533 12.4807H55.6193V14.4557Z" fill="#F0EEEE" stroke="#F0EEEE" stroke-width="0.190217" stroke-miterlimit="10"/>
<path d="M64.2555 16.7037C63.6912 17.2774 62.9929 17.5595 62.1512 17.5595C61.3094 17.5595 60.6112 17.2774 60.0468 16.7037C59.4825 16.13 59.2051 15.434 59.2051 14.6158C59.2051 13.7976 59.4825 13.0922 60.0468 12.5279C60.6112 11.9543 61.3094 11.6721 62.1512 11.6721C62.9833 11.6721 63.6816 11.9543 64.2555 12.5279C64.8199 13.1016 65.1068 13.7976 65.1068 14.6158C65.1068 15.4434 64.8199 16.1394 64.2555 16.7037ZM60.592 16.2334C61.0129 16.6566 61.539 16.8635 62.1512 16.8635C62.7633 16.8635 63.2894 16.6566 63.7103 16.2334C64.1312 15.8102 64.3512 15.2741 64.3512 14.6158C64.3512 13.9575 64.1407 13.4214 63.7103 12.9982C63.2894 12.575 62.7633 12.3681 62.1512 12.3681C61.539 12.3681 61.0129 12.575 60.592 12.9982C60.1712 13.4214 59.9512 13.9575 59.9512 14.6158C59.9512 15.2741 60.1712 15.8102 60.592 16.2334Z" fill="#F0EEEE" stroke="#F0EEEE" stroke-width="0.190217" stroke-miterlimit="10"/>
<path d="M66.1406 17.437V11.7942H67.0398L69.8328 16.1862H69.8615L69.8328 15.0953V11.7942H70.5693V17.437H69.8041L66.8867 12.8381H66.858L66.8867 13.9291V17.437H66.1406Z" fill="#F0EEEE" stroke="#F0EEEE" stroke-width="0.190217" stroke-miterlimit="10"/>
<path d="M71.8789 17.4371V11.7943H72.6154V17.4371H71.8789ZM72.5676 11.3523H71.9267L72.3476 10.3459H73.1511L72.5676 11.3523Z" fill="#F0EEEE" stroke="#F0EEEE" stroke-width="0.190217" stroke-miterlimit="10"/>
<path d="M75.3522 17.437L73.334 11.7942H74.147L75.7157 16.3743H75.7444L77.3896 11.7942H78.2027L76.1175 17.437H75.3522Z" fill="#F0EEEE" stroke="#F0EEEE" stroke-width="0.190217" stroke-miterlimit="10"/>
<path d="M82.3918 12.4901H79.7805V14.277H82.1335V14.9542H79.7805V16.7411H82.3918V17.437H79.0439V11.7942H82.3918V12.4901Z" fill="#F0EEEE" stroke="#F0EEEE" stroke-width="0.190217" stroke-miterlimit="10"/>
<path d="M83.54 17.437V11.7942H84.2766V16.7411H86.7635V17.437H83.54Z" fill="#F0EEEE" stroke="#F0EEEE" stroke-width="0.190217" stroke-miterlimit="10"/>
<path d="M89.6133 17.437V11.7942H90.5124L93.3055 16.1862H93.3342L93.3055 15.0953V11.7942H94.042V17.437H93.2768L90.3594 12.8381H90.3307L90.3594 13.9291V17.437H89.6133Z" fill="#F0EEEE" stroke="#F0EEEE" stroke-width="0.190217" stroke-miterlimit="10"/>
<path d="M100.05 16.7037C99.4851 17.2774 98.7869 17.5595 97.9451 17.5595C97.1034 17.5595 96.4051 17.2774 95.8408 16.7037C95.2764 16.13 94.999 15.434 94.999 14.6158C94.999 13.7976 95.2764 13.0922 95.8408 12.5279C96.4051 11.9543 97.1034 11.6721 97.9451 11.6721C98.7773 11.6721 99.4755 11.9543 100.05 12.5279C100.614 13.1016 100.901 13.7976 100.901 14.6158C100.891 15.4434 100.614 16.1394 100.05 16.7037ZM96.386 16.2334C96.8068 16.6566 97.3329 16.8635 97.9451 16.8635C98.5573 16.8635 99.0834 16.6566 99.5042 16.2334C99.9251 15.8102 100.145 15.2741 100.145 14.6158C100.145 13.9575 99.9347 13.4214 99.5042 12.9982C99.0834 12.575 98.5573 12.3681 97.9451 12.3681C97.3329 12.3681 96.8068 12.575 96.386 12.9982C95.9651 13.4214 95.7451 13.9575 95.7451 14.6158C95.7451 15.2741 95.9651 15.8102 96.386 16.2334Z" fill="#F0EEEE" stroke="#F0EEEE" stroke-width="0.190217" stroke-miterlimit="10"/>
</g>
<rect x="3.5" y="3.5" width="131" height="40" rx="7" stroke="#BD0B0B" shape-rendering="crispEdges"/>
</g>
<defs>
<filter id="filter0_d_889_1230" x="0" y="0" width="142" height="51" filterUnits="userSpaceOnUse" color-interpolation-filters="sRGB">
<feFlood flood-opacity="0" result="BackgroundImageFix"/>
<feColorMatrix in="SourceAlpha" type="matrix" values="0 0 0 0 0 0 0 0 0 0 0 0 0 0 0 0 0 0 127 0" result="hardAlpha"/>
<feOffset dx="2" dy="2"/>
<feGaussianBlur stdDeviation="2.5"/>
<feComposite in2="hardAlpha" operator="out"/>
<feColorMatrix type="matrix" values="0 0 0 0 0 0 0 0 0 0 0 0 0 0 0 0 0 0 0.25 0"/>
<feBlend mode="normal" in2="BackgroundImageFix" result="effect1_dropShadow_889_1230"/>
<feBlend mode="normal" in="SourceGraphic" in2="effect1_dropShadow_889_1230" result="shape"/>
</filter>
<linearGradient id="paint0_linear_889_1230" x1="23.8507" y1="13.2306" x2="8.06953" y2="29.281" gradientUnits="userSpaceOnUse">
<stop stop-color="#00A0FF"/>
<stop offset="0.00657445" stop-color="#00A1FF"/>
<stop offset="0.2601" stop-color="#00BEFF"/>
<stop offset="0.5122" stop-color="#00D2FF"/>
<stop offset="0.7604" stop-color="#00DFFF"/>
<stop offset="1" stop-color="#00E3FF"/>
</linearGradient>
<linearGradient id="paint1_linear_889_1230" x1="35.3623" y1="23.851" x2="12.2175" y2="23.851" gradientUnits="userSpaceOnUse">
<stop stop-color="#FFE000"/>
<stop offset="0.4087" stop-color="#FFBD00"/>
<stop offset="0.7754" stop-color="#FFA500"/>
<stop offset="1" stop-color="#FF9C00"/>
</linearGradient>
<linearGradient id="paint2_linear_889_1230" x1="26.7468" y1="26.0083" x2="5.34625" y2="47.774" gradientUnits="userSpaceOnUse">
<stop stop-color="#FF3A44"/>
<stop offset="1" stop-color="#C31162"/>
</linearGradient>
<linearGradient id="paint3_linear_889_1230" x1="9.97909" y1="5.20576" x2="19.5354" y2="14.925" gradientUnits="userSpaceOnUse">
<stop stop-color="#32A071"/>
<stop offset="0.0685" stop-color="#2DA771"/>
<stop offset="0.4762" stop-color="#15CF74"/>
<stop offset="0.8009" stop-color="#06E775"/>
<stop offset="1" stop-color="#00F076"/>
</linearGradient>
<clipPath id="clip0_889_1230">
<rect x="3" y="3" width="132" height="41" rx="7.5" fill="white"/>
</clipPath>
</defs>
</svg>
