<svg width="160" height="37" viewBox="0 0 160 37" fill="none" xmlns="http://www.w3.org/2000/svg">
<path d="M0 36.5022C0 36.2272 0.223858 36.0043 0.5 36.0043H159.5C159.776 36.0043 160 36.2272 160 36.5022C160 36.7771 159.776 37 159.5 37H0.500002C0.22386 37 0 36.7771 0 36.5022Z" fill="white"/>
<path d="M20.352 34.2678C15.296 34.2678 11.856 32.5473 10.032 29.1061C6.736 31.8463 4.384 33.2164 2.976 33.2164C2.304 33.2164 1.776 32.8977 1.392 32.2605C1.04 31.6233 0.864 30.9064 0.864 30.1098C0.864 28.1981 1.6 25.9677 3.072 23.4187C3.712 22.3036 4.416 21.284 5.184 20.36C5.952 19.436 6.816 18.9739 7.776 18.9739C8.704 18.9739 9.408 19.7386 9.888 21.268L11.328 25.8562C11.84 25.3145 12.4 24.6614 13.008 23.8967C13.648 23.1001 14.352 22.1761 15.12 21.1246L19.392 15.3895C24.64 8.6028 28.08 4.89085 29.712 4.25361C30.288 4.03057 30.864 3.91905 31.44 3.91905C32.08 3.91905 32.592 4.06243 32.976 4.34919C33.392 4.60409 33.6 4.90678 33.6 5.25727C33.6 5.83078 33.136 6.16534 32.208 6.26092C31.248 6.80258 29.376 8.41163 26.592 11.0881C25.312 12.3307 24.272 13.3662 23.472 14.1946C22.704 14.9912 22.176 15.5966 21.888 16.0108C18.304 20.9813 14.992 24.8047 11.952 27.4812C13.904 31.3365 16.832 33.2642 20.736 33.2642C22.208 33.2642 23.696 32.9455 25.2 32.3083C26.736 31.7029 28.144 30.8904 29.424 29.8708C30.736 28.8512 31.792 27.7201 32.592 26.4775C33.392 25.203 33.792 23.9445 33.792 22.7018C33.792 21.3955 33.328 20.2166 32.4 19.1651C31.472 18.1137 30.336 17.3649 28.992 16.9188C28.992 16.9188 28.752 16.887 28.272 16.8233C27.792 16.7595 27.056 16.6639 26.064 16.5365C24.56 16.3453 23.808 16.0426 23.808 15.6284C23.808 15.3417 23.984 15.0868 24.336 14.8637C24.72 14.6407 25.104 14.5292 25.488 14.5292C25.776 14.5292 26.112 14.5929 26.496 14.7203C26.88 14.8478 27.216 14.9752 27.504 15.1027C27.824 15.1983 27.984 15.2461 27.984 15.2461C28.24 15.2779 28.528 15.3098 28.848 15.3417C29.168 15.3417 29.488 15.3417 29.808 15.3417C31.92 15.3417 33.84 15.0071 35.568 14.338C37.232 13.6689 38.448 12.7449 39.216 11.566C39.984 10.3871 40.368 9.01701 40.368 7.45576C40.368 5.86265 39.856 4.60409 38.832 3.68008C37.84 2.75608 36.512 2.10291 34.848 1.72056C33.216 1.30635 31.44 1.09925 29.52 1.09925C25.776 1.09925 22.208 1.6409 18.816 2.72422C15.456 3.80753 12.544 5.60775 10.08 8.12487C8.192 10.0685 7.248 11.6934 7.248 12.9998C7.248 13.9238 7.488 14.7044 7.968 15.3417C8.096 15.501 8.24 15.6603 8.4 15.8196C8.56 15.9789 8.752 16.1382 8.976 16.2975C9.136 16.3931 9.04 16.4409 8.688 16.4409C6.704 15.9948 5.712 14.6726 5.712 12.4741C5.712 10.2756 6.832 8.20452 9.072 6.26092C10.8 4.7634 12.768 3.55264 14.976 2.62863C17.216 1.70463 19.568 1.03552 22.032 0.621314C24.528 0.207105 26.992 0 29.424 0C31.152 0 32.816 0.127448 34.416 0.382345C36.016 0.637243 37.456 1.06738 38.736 1.67276C40.016 2.24628 41.024 3.01098 41.76 3.96685C42.528 4.92271 42.912 6.10161 42.912 7.50355C42.912 9.47901 42.384 11.0562 41.328 12.2351C40.272 13.414 38.848 14.3221 37.056 14.9593C34.944 15.6921 32.672 16.0745 30.24 16.1064C31.584 16.1701 32.752 16.5206 33.744 17.1578C34.768 17.795 35.552 18.6235 36.096 19.6431C36.672 20.6626 36.96 21.7778 36.96 22.9886C36.96 24.6136 36.464 26.127 35.472 27.529C34.512 28.899 33.216 30.0939 31.584 31.1135C29.952 32.1012 28.16 32.8659 26.208 33.4075C24.256 33.9811 22.304 34.2678 20.352 34.2678ZM3.6 32.1171C4.624 32.1171 6.592 30.6674 9.504 27.7679L9.36 27.5767C8.08 23.3391 7.056 21.2202 6.288 21.2202C6.256 21.2202 6.176 21.2521 6.048 21.3158C3.68 24.7251 2.496 27.4652 2.496 29.5363C2.496 29.9823 2.576 30.524 2.736 31.1612C2.928 31.7985 3.216 32.1171 3.6 32.1171Z" fill="white"/>
<path d="M41.5841 32.5473C40.1441 32.5473 39.4241 31.6392 39.4241 29.823C39.4241 29.1221 39.6321 28.2936 40.0481 27.3378C40.4961 26.3501 41.1201 25.3145 41.9201 24.2312C41.9201 24.2312 41.6321 24.502 41.0561 25.0437C40.4801 25.5854 39.8241 26.2704 39.0881 27.0988C38.9601 27.2263 38.8001 27.29 38.6081 27.29C38.4801 27.29 38.4161 27.2103 38.4161 27.051C38.4161 26.8917 38.5601 26.6209 38.8481 26.2385L45.4721 18.496C46.3041 17.5402 47.2161 17.0622 48.2081 17.0622C48.9441 17.0622 49.3121 17.349 49.3121 17.9225C49.3121 18.1455 49.2161 18.3526 49.0241 18.5438C48.4161 19.1173 47.6641 19.9298 46.7681 20.9813C45.9041 22.0327 45.0561 23.1638 44.2241 24.3746C43.3921 25.5854 42.6881 26.7483 42.1121 27.8635C41.5681 28.9468 41.2961 29.823 41.2961 30.4921C41.2961 31.0657 41.4881 31.3524 41.8721 31.3524C42.0961 31.3524 42.4481 31.2728 42.9281 31.1135C43.4081 30.9223 44.0481 30.5559 44.8481 30.0142C45.6481 29.4407 46.6081 28.5645 47.7281 27.3856C47.9201 27.1944 48.4321 26.6209 49.2641 25.665C50.0961 24.7092 51.2161 23.3391 52.6241 21.5548C55.1201 18.4642 56.7521 16.9188 57.5201 16.9188C58.5761 16.9188 59.1521 17.349 59.2481 18.2093C59.3121 18.496 58.6401 19.436 57.2321 21.0291C55.4081 23.2276 54.1601 24.8047 53.4881 25.7606C52.2401 27.5767 51.6161 28.9946 51.6161 30.0142C51.6161 30.7152 51.8561 31.0657 52.3361 31.0657C52.8161 31.0657 53.4241 30.8426 54.1601 30.3966C54.9281 29.9186 55.7281 29.3292 56.5601 28.6282C57.3921 27.8954 58.1921 27.1466 58.9601 26.3819C59.7601 25.5854 60.4481 24.8525 61.0241 24.1834C61.2161 23.9604 61.4081 23.8489 61.6001 23.8489C61.7921 23.8489 61.8881 23.9445 61.8881 24.1356C61.8881 24.1994 61.8721 24.2949 61.8401 24.4224C61.8081 24.5498 61.7121 24.6932 61.5521 24.8525C61.0401 25.4261 60.3841 26.1429 59.5841 27.0032C58.7841 27.8316 57.9201 28.6601 56.9921 29.4885C56.0641 30.3169 55.1681 31.0019 54.3041 31.5436C53.4401 32.0853 52.7041 32.3561 52.0961 32.3561C51.3601 32.3561 50.7201 32.1649 50.1761 31.7826C49.6321 31.3684 49.3601 30.8108 49.3601 30.1098C49.3601 29.4088 49.4721 28.7079 49.6961 28.0069C49.9201 27.2741 50.0961 26.6527 50.2241 26.1429C48.7201 27.8954 47.3921 29.2336 46.2401 30.1576C45.1201 31.0816 44.1761 31.7029 43.4081 32.0215C42.6401 32.372 42.0321 32.5473 41.5841 32.5473Z" fill="white"/>
<path d="M69.5107 32.2605C68.1347 32.2605 67.1907 31.91 66.6787 31.209C66.1667 30.4762 65.9108 29.5044 65.9108 28.2936C65.9108 26.9554 66.3268 25.3623 67.1588 23.5143C67.4788 22.7815 67.8147 22.1283 68.1667 21.5548C68.5187 20.9494 68.8868 20.3918 69.2708 19.882C69.1428 19.9139 69.0308 19.9298 68.9348 19.9298C68.8388 19.9298 68.7428 19.9298 68.6468 19.9298C67.8788 19.9298 67.2388 19.3882 66.7268 18.3048L63.1748 22.893C61.2868 25.3464 60.1348 26.5731 59.7188 26.5731C59.5587 26.5731 59.4787 26.5094 59.4787 26.3819C59.4787 26.2226 59.5587 26.0155 59.7188 25.7606C59.8148 25.5694 60.0068 25.3145 60.2948 24.9959C61.5108 23.594 62.6308 22.208 63.6548 20.8379C64.6788 19.4678 65.5268 18.1296 66.1988 16.8233C66.9348 14.0512 67.8628 12.6652 68.9827 12.6652C69.7188 12.6652 70.0868 12.9998 70.0868 13.6689C70.0868 14.2743 69.6867 15.0708 68.8867 16.0586C68.1187 17.0463 67.7347 17.5561 67.7347 17.5879C67.7347 18.257 68.2307 18.5916 69.2227 18.5916C69.7987 18.5916 70.4388 18.3845 71.1428 17.9703L72.3907 17.2056C72.4547 17.1737 72.5507 17.1578 72.6787 17.1578C73.0627 17.1578 73.3988 17.3171 73.6868 17.6357C73.9748 17.9544 74.0708 18.2411 73.9748 18.496L70.6628 22.654C68.6147 25.2667 67.5908 27.3696 67.5908 28.9628C67.5908 30.3966 68.2948 31.1135 69.7028 31.1135C70.6628 31.1135 71.6867 30.8267 72.7747 30.2532C73.8947 29.6797 74.9668 28.9787 75.9908 28.1503C77.0468 27.29 77.9268 26.4616 78.6308 25.665L79.7828 24.3268C79.8468 24.2631 79.9268 24.1834 80.0228 24.0878C80.1188 23.9923 80.1987 23.9445 80.2627 23.9445C80.4867 23.9445 80.5988 24.056 80.5988 24.279C80.5988 24.3427 80.5668 24.4543 80.5028 24.6136C80.4388 24.7729 80.3267 24.9481 80.1667 25.1393L78.6308 26.8598C77.8948 27.6883 76.9828 28.5326 75.8948 29.3929C74.8388 30.2213 73.7347 30.9064 72.5827 31.448C71.4627 31.9897 70.4387 32.2605 69.5107 32.2605Z" fill="white"/>
<path d="M90.8494 32.1171C89.9854 32.1171 89.3774 31.8781 89.0254 31.4002C88.6734 30.8904 88.4974 30.2691 88.4974 29.5363C88.4974 27.6883 89.1374 25.7128 90.4174 23.6099L93.4894 18.6394C91.3134 20.2325 89.1534 22.2239 87.0094 24.6136C86.4334 25.2508 85.7774 25.9996 85.0414 26.8598C84.3374 27.7201 83.5534 28.7079 82.6894 29.823C81.5374 31.3206 80.8494 32.0693 80.6254 32.0693C80.1774 32.0693 79.8094 31.8781 79.5214 31.4958C79.2334 31.0816 79.0894 30.7152 79.0894 30.3966C79.0894 30.1417 79.1694 29.6797 79.3294 29.0106C79.4894 28.3096 79.6814 27.7042 79.9054 27.1944C80.1294 26.6527 80.3534 26.127 80.5774 25.6172C80.8334 25.0756 81.0734 24.5498 81.2974 24.04L78.4174 27.051C78.3534 27.1147 78.1614 27.3059 77.8414 27.6245C77.5214 27.9432 77.2654 28.1025 77.0734 28.1025C76.9134 28.1025 76.8334 27.991 76.8334 27.7679C76.8334 27.7042 76.8654 27.6245 76.9294 27.529C76.9614 27.4015 77.0574 27.2581 77.2174 27.0988C77.6974 26.6209 78.1934 26.1111 78.7054 25.5694C79.2174 25.0278 79.7454 24.4065 80.2894 23.7055C80.5774 23.355 81.0094 22.8293 81.5854 22.1283C82.1614 21.3955 82.7854 20.6149 83.4574 19.7864C84.1614 18.958 84.8174 18.1933 85.4254 17.4924C85.5854 17.2693 85.7614 17.1259 85.9534 17.0622C86.1454 16.9666 86.2734 16.9188 86.3374 16.9188C87.2014 16.9188 87.6334 17.2534 87.6334 17.9225C87.6334 18.1137 87.5854 18.3048 87.4894 18.496C84.6094 22.4469 82.8814 25.4579 82.3054 27.529C86.0174 23.8329 88.9934 21.0609 91.2334 19.2129C93.5054 17.333 95.1214 16.3931 96.0814 16.3931C96.5934 16.3931 96.9774 16.4728 97.2334 16.6321C97.5214 16.7914 97.6654 17.0941 97.6654 17.5402C97.6654 17.6995 97.6494 17.8269 97.6174 17.9225C97.5214 18.1455 96.8654 19.0377 95.6494 20.5989C94.9134 21.4911 94.2574 22.3036 93.6814 23.0364C93.1374 23.7692 92.6894 24.4065 92.3374 24.9481C91.7614 25.8403 91.3294 26.6846 91.0414 27.4812C90.7534 28.2459 90.6094 28.899 90.6094 29.4407C90.6094 29.6637 90.6414 29.9346 90.7054 30.2532C90.7694 30.5718 90.9614 30.7311 91.2814 30.7311C92.0174 30.7311 93.1694 30.0939 94.7374 28.8194C95.4734 28.1821 96.1614 27.5449 96.8014 26.9076C97.4414 26.2385 98.0494 25.5854 98.6254 24.9481C98.7534 24.8207 98.9614 24.5817 99.2494 24.2312C99.5374 23.8489 99.7134 23.6577 99.7774 23.6577C99.9054 23.6577 99.9694 23.7851 99.9694 24.04C99.9694 24.1675 99.8894 24.3905 99.7294 24.7091C99.6014 24.9959 99.4574 25.2189 99.2974 25.3783C98.9454 25.7925 98.4174 26.366 97.7134 27.0988C97.0414 27.8316 96.2734 28.5804 95.4094 29.3451C94.5774 30.1098 93.7614 30.763 92.9614 31.3046C92.1614 31.8463 91.4574 32.1171 90.8494 32.1171Z" fill="white"/>
<path d="M100.033 32.1171C99.2328 32.1171 98.6088 31.7507 98.1608 31.0179C97.7128 30.2532 97.4887 29.5203 97.4887 28.8194C97.4887 26.9076 98.8807 24.2312 101.665 20.7901C104.481 17.3171 106.753 15.5806 108.481 15.5806C110.113 15.5806 110.929 16.4409 110.929 18.1615C110.929 18.4164 110.897 18.6872 110.833 18.9739C110.801 19.2607 110.753 19.5634 110.689 19.882C110.753 19.9776 110.913 20.0254 111.169 20.0254C112.033 20.0254 113.057 19.7227 114.241 19.1173C114.209 19.659 112.945 20.4396 110.449 21.4592C110.801 22.5107 109.745 24.518 107.281 27.4812C104.753 30.5718 102.593 32.1171 100.801 32.1171H100.033ZM100.897 30.6833C102.273 30.6833 104.033 29.4248 106.177 26.9076C108.257 24.4543 109.297 22.6859 109.297 21.6026C108.785 21.3158 108.145 20.583 107.377 19.4041C106.289 19.4041 104.721 20.7104 102.673 23.3231C100.657 25.8721 99.6808 27.8316 99.7448 29.2017C99.7768 30.1895 100.161 30.6833 100.897 30.6833Z" fill="white"/>
<path d="M113.725 32.5473C112.285 32.5473 111.565 31.6392 111.565 29.823C111.565 29.1221 111.773 28.2936 112.189 27.3378C112.637 26.3501 113.261 25.3145 114.061 24.2312C114.061 24.2312 113.773 24.502 113.197 25.0437C112.621 25.5854 111.965 26.2704 111.229 27.0988C111.101 27.2263 110.941 27.29 110.749 27.29C110.621 27.29 110.557 27.2103 110.557 27.051C110.557 26.8917 110.701 26.6209 110.989 26.2385L117.613 18.496C118.445 17.5402 119.357 17.0622 120.349 17.0622C121.085 17.0622 121.453 17.349 121.453 17.9225C121.453 18.1455 121.357 18.3526 121.165 18.5438C120.557 19.1173 119.805 19.9298 118.909 20.9813C118.045 22.0327 117.197 23.1638 116.365 24.3746C115.533 25.5854 114.829 26.7483 114.253 27.8635C113.709 28.9468 113.437 29.823 113.437 30.4921C113.437 31.0657 113.629 31.3524 114.013 31.3524C114.237 31.3524 114.589 31.2728 115.069 31.1135C115.549 30.9223 116.189 30.5559 116.989 30.0142C117.789 29.4407 118.749 28.5645 119.869 27.3856C120.061 27.1944 120.573 26.6209 121.405 25.665C122.237 24.7092 123.357 23.3391 124.765 21.5548C127.261 18.4642 128.893 16.9188 129.661 16.9188C130.717 16.9188 131.293 17.349 131.389 18.2093C131.453 18.496 130.781 19.436 129.373 21.0291C127.549 23.2276 126.301 24.8047 125.629 25.7606C124.381 27.5767 123.757 28.9946 123.757 30.0142C123.757 30.7152 123.997 31.0657 124.477 31.0657C124.957 31.0657 125.565 30.8426 126.301 30.3966C127.069 29.9186 127.869 29.3292 128.701 28.6282C129.533 27.8954 130.333 27.1466 131.101 26.3819C131.901 25.5854 132.589 24.8525 133.165 24.1834C133.357 23.9604 133.549 23.8489 133.741 23.8489C133.933 23.8489 134.029 23.9445 134.029 24.1356C134.029 24.1994 134.013 24.2949 133.981 24.4224C133.949 24.5498 133.853 24.6932 133.693 24.8525C133.181 25.4261 132.525 26.1429 131.725 27.0032C130.925 27.8316 130.061 28.6601 129.133 29.4885C128.205 30.3169 127.309 31.0019 126.445 31.5436C125.581 32.0853 124.845 32.3561 124.237 32.3561C123.501 32.3561 122.861 32.1649 122.317 31.7826C121.773 31.3684 121.501 30.8108 121.501 30.1098C121.501 29.4088 121.613 28.7079 121.837 28.0069C122.061 27.2741 122.237 26.6527 122.365 26.1429C120.861 27.8954 119.533 29.2336 118.381 30.1576C117.261 31.0816 116.317 31.7029 115.549 32.0215C114.781 32.372 114.173 32.5473 113.725 32.5473Z" fill="white"/>
<path d="M134.835 32.3083C133.811 32.3083 132.995 32.0693 132.387 31.5914C131.811 31.0816 131.523 30.1895 131.523 28.915C131.523 28.1821 131.747 27.2581 132.195 26.1429C132.643 24.9959 133.203 23.7692 133.875 22.4629C134.547 21.1565 135.219 19.8661 135.891 18.5916C135.475 18.6872 135.107 18.735 134.787 18.735C133.827 18.735 133.347 18.3686 133.347 17.6357C133.347 17.2853 133.475 17.0144 133.731 16.8233C134.019 16.6321 134.275 16.5206 134.499 16.4887C134.499 16.4887 134.531 16.4887 134.595 16.4887C134.691 16.4887 134.803 16.4728 134.931 16.4409H137.715C138.291 15.7081 138.883 14.9274 139.491 14.099C140.355 13.0157 141.043 12.3785 141.555 12.1873H141.699C141.923 12.1873 142.243 12.2988 142.659 12.5219C143.171 12.8086 143.427 13.0954 143.427 13.3821C143.427 13.7963 142.659 14.8637 141.123 16.5843C141.411 16.6161 141.827 16.6321 142.371 16.6321C142.915 16.6321 143.587 16.6321 144.387 16.6321C144.771 16.6321 145.315 16.6321 146.019 16.6321C146.755 16.6321 147.507 16.6321 148.275 16.6321C149.075 16.6002 149.763 16.5843 150.339 16.5843C150.915 16.5524 151.235 16.5365 151.299 16.5365C151.395 16.5684 151.443 16.6161 151.443 16.6799C151.443 16.9666 149.555 17.349 145.779 17.8269C143.635 18.1137 141.987 18.3367 140.835 18.496C139.715 18.6553 139.107 18.7509 139.011 18.7828C138.563 19.1651 138.019 19.8183 137.379 20.7423C136.739 21.6663 136.099 22.7018 135.459 23.8489C134.819 24.9959 134.275 26.0952 133.827 27.1466C133.411 28.1662 133.203 28.9628 133.203 29.5363C133.203 30.0461 133.395 30.4762 133.779 30.8267C134.163 31.1453 134.787 31.3046 135.651 31.3046C136.227 31.3046 136.915 31.1772 137.715 30.9223C138.515 30.6674 139.267 30.3806 139.971 30.062C140.707 29.7115 141.235 29.4407 141.555 29.2495C142.387 28.7397 143.299 28.0706 144.291 27.2422C145.315 26.3819 146.323 25.4101 147.315 24.3268C147.763 23.8807 148.067 23.6577 148.227 23.6577C148.323 23.6577 148.371 23.7214 148.371 23.8489C148.371 24.1038 148.131 24.518 147.651 25.0915C146.883 26.0155 146.019 26.9076 145.059 27.7679C144.131 28.5963 143.091 29.361 141.939 30.062C140.627 30.8586 139.363 31.4321 138.147 31.7826C136.963 32.133 135.859 32.3083 134.835 32.3083Z" fill="white"/>
</svg>
